<svg version="1.1" id="Layer_1" xmlns="http://www.w3.org/2000/svg" xmlns:xlink="http://www.w3.org/1999/xlink" x="0px" y="0px"
	 width="100%" viewBox="0 0 496 496" enable-background="new 0 0 496 496" xml:space="preserve">
<path fill="#000000" opacity="1.000000" stroke="none" 
	d="
M295.478149,336.292847 
	C291.652649,334.919342 292.901031,333.940247 295.309662,333.176727 
	C304.167633,330.368896 305.180481,328.742371 302.240204,320.132996 
	C297.029480,304.875641 291.601562,289.692444 286.309692,274.607025 
	C284.268585,274.383453 284.162567,275.913422 283.612244,276.751892 
	C277.973724,285.342133 270.352661,290.695129 259.878204,291.297485 
	C257.295776,291.445984 256.357208,292.585175 256.372955,295.027863 
	C256.429901,303.859131 256.646179,312.708466 258.657990,321.325806 
	C260.088776,327.454285 263.051605,332.579773 270.467651,332.955078 
	C271.612732,333.013031 272.801178,333.451874 272.673676,335.709656 
	C260.205902,335.709656 247.710571,335.709656 235.179138,335.709656 
	C235.072067,332.957520 236.835968,332.927185 238.214798,332.781342 
	C242.953033,332.280243 245.762268,329.312134 247.412827,325.286255 
	C251.714081,314.795135 250.685181,303.704865 250.670456,292.746246 
	C250.668655,291.415527 249.894531,290.571442 248.594269,290.303864 
	C238.848648,288.298340 229.909653,283.189850 219.667908,283.017151 
	C210.523407,282.862915 206.713058,285.660156 205.744904,294.653534 
	C204.969284,301.858704 203.167511,308.654419 200.251404,315.273865 
	C197.785736,320.870819 203.653168,331.009491 209.986496,332.640167 
	C212.194000,333.208557 214.568268,333.238342 216.559509,334.535553 
	C216.402542,336.762726 214.720016,336.258270 213.573868,336.289398 
	C209.576843,336.398041 205.573013,336.458649 201.576660,336.353149 
	C188.916260,336.019012 176.859924,337.965179 164.402786,341.222656 
	C126.293663,351.187927 90.909447,343.931305 59.371899,319.720337 
	C56.737919,317.698242 55.689522,315.352386 55.729023,312.040863 
	C55.866161,300.543671 55.686974,289.042694 55.832253,277.545715 
	C55.863132,275.101776 54.254204,271.120667 57.465782,270.545135 
	C60.936939,269.923065 60.457558,274.289734 61.169277,276.538635 
	C67.863914,297.692444 79.191078,315.541595 98.049988,327.816010 
	C120.224228,342.248169 143.819000,343.476929 167.563660,332.733917 
	C192.710419,321.356506 195.243149,291.202484 173.095276,274.275452 
	C163.703629,267.097687 152.557343,264.220764 141.429504,261.342712 
	C123.744568,256.768768 105.459221,254.447754 88.474106,247.255737 
	C79.030754,243.257141 70.163719,238.315338 63.515862,230.268524 
	C52.212704,216.586716 53.735195,197.675171 67.190170,183.642044 
	C79.976257,170.306580 96.196419,163.401489 114.002472,160.982101 
	C145.165665,156.747833 174.193420,163.202560 200.611526,180.755051 
	C205.095535,183.734268 206.063080,186.559265 203.760132,191.406754 
	C200.981735,197.255081 198.908142,203.437576 196.497543,209.462646 
	C196.323303,209.898087 195.888702,210.229340 195.460678,210.747696 
	C192.607986,209.586151 191.493271,206.811615 189.863129,204.631989 
	C182.858078,195.265640 175.452499,186.341232 166.153137,179.060806 
	C146.751343,163.871277 119.001091,161.466766 97.469040,173.261047 
	C91.926117,176.297195 87.470673,180.525269 83.865204,185.556259 
	C75.418625,197.342361 79.168213,211.017746 92.786476,218.827286 
	C104.652664,225.632095 117.736069,228.783554 130.931870,231.718338 
	C143.905243,234.603622 157.032578,236.903259 169.546432,241.647430 
	C185.878281,247.839050 198.869904,257.401276 204.329300,276.539490 
	C217.703918,238.460281 230.609390,201.716766 243.439392,165.188080 
	C241.607361,162.984711 239.583832,162.406784 237.358246,162.242172 
	C236.163742,162.153824 234.880142,161.982620 234.866837,160.412933 
	C234.852814,158.760605 236.206543,158.711823 237.369125,158.709961 
	C248.700821,158.691818 260.032562,158.701920 271.364288,158.710983 
	C274.586334,158.713562 274.765472,161.404938 275.501862,163.520065 
	C285.077057,191.023865 294.644318,218.530472 304.182037,246.047287 
	C312.684418,270.576996 321.124023,295.128510 329.670502,319.642822 
	C330.400482,321.736694 330.641693,324.188293 333.101196,326.052643 
	C334.892059,321.175232 336.651733,316.568512 338.281189,311.916168 
	C355.449890,262.896393 372.667084,213.893234 389.641205,164.806061 
	C391.283325,160.057129 393.479340,158.326553 398.509949,158.529617 
	C408.492859,158.932602 418.503326,158.634735 428.502258,158.674500 
	C430.242615,158.681412 432.136200,158.300659 433.454102,159.527710 
	C433.716370,160.860992 433.270386,161.756699 432.430634,161.820969 
	C422.027344,162.617157 419.837189,170.370239 418.485962,178.537445 
	C417.592194,183.939484 417.280518,189.424438 417.296295,194.948135 
	C417.398682,230.777771 417.360443,266.607819 417.337067,302.437744 
	C417.333282,308.279938 417.892181,314.057251 419.139252,319.752075 
	C420.649414,326.648376 423.303589,332.541565 431.669861,333.074310 
	C432.656128,333.137115 433.594543,333.691193 433.477722,335.687073 
	C414.331848,335.687073 395.143097,335.687073 376.030701,335.687073 
	C375.566406,334.172394 376.180328,333.268463 377.261169,333.177094 
	C386.894928,332.362610 389.095795,325.158722 390.545135,317.549072 
	C391.476807,312.657318 391.730957,307.666840 391.721893,302.646301 
	C391.647736,261.488556 391.680054,220.330627 390.970978,178.931229 
	C389.420074,183.106995 387.801941,187.259201 386.328522,191.462143 
	C370.467987,236.704910 354.668671,281.969238 338.718475,327.180298 
	C337.341797,331.082520 338.017517,332.814636 342.208893,333.003235 
	C343.493500,333.061035 344.937042,333.133545 346.065613,336.206818 
	C329.017059,336.527283 312.466858,336.338074 295.478149,336.292847 
M237.150314,200.505203 
	C229.159180,223.141281 221.168030,245.777359 213.176880,268.413452 
	C213.438156,268.725525 213.699448,269.037628 213.960724,269.349731 
	C225.245789,260.453857 237.604843,262.028137 250.214478,265.850952 
	C250.469727,264.013611 250.720627,263.050873 250.720139,262.088257 
	C250.707382,236.626648 250.810349,211.163300 250.497742,185.705109 
	C250.444366,181.358429 250.430420,176.580627 247.271988,171.809586 
	C243.790390,181.633728 240.580078,190.692337 237.150314,200.505203 
M258.274048,194.447083 
	C257.558777,193.662964 258.238800,192.060165 256.401550,191.605530 
	C256.401550,216.181366 256.401337,240.603287 256.402008,265.025208 
	C256.402039,266.583710 256.746033,267.837860 258.253143,268.802979 
	C263.932861,272.440094 274.661469,272.475647 280.278351,268.933441 
	C282.777802,267.357178 283.447815,265.796936 282.380157,262.812469 
	C274.320618,240.283340 266.456512,217.684296 258.274048,194.447083 
z"/>
<path fill="#000000" opacity="1.000000" stroke="none" 
	d="
M121.000031,420.734589 
	C233.133240,420.752869 344.766449,420.771698 456.399658,420.789856 
	C464.586853,420.791199 464.618927,420.788940 464.624115,412.640167 
	C464.642731,383.482239 464.636108,354.324341 464.645782,325.166412 
	C464.646362,323.501221 464.688354,321.835358 464.745728,320.171021 
	C464.801758,318.543915 465.711731,317.824829 467.303131,317.782684 
	C469.074249,317.735840 470.205505,318.361938 470.245850,320.303009 
	C470.270081,321.468597 470.323456,322.634094 470.323700,323.799622 
	C470.330109,355.956665 470.337372,388.113678 470.328644,420.270721 
	C470.326874,426.879242 470.270630,426.971619 463.628815,426.972992 
	C322.004669,427.002319 180.380508,427.019348 38.756363,427.022644 
	C31.678701,427.022827 31.661547,426.955231 31.660305,419.706909 
	C31.654850,387.883118 31.658167,356.059326 31.667873,324.235535 
	C31.668329,322.737946 31.699202,321.235138 31.827408,319.744324 
	C31.949953,318.319336 32.934460,317.816895 34.256199,317.808563 
	C35.682606,317.799530 37.019756,318.025085 37.180264,319.773285 
	C37.332195,321.428070 37.341469,323.099823 37.341972,324.764099 
	C37.351063,354.755127 37.420971,384.746490 37.270397,414.736755 
	C37.248528,419.092773 38.139194,420.873230 43.025925,420.828339 
	C68.848732,420.591125 94.674980,420.727875 121.000031,420.734589 
z"/>
<path fill="#000000" opacity="1.000000" stroke="none" 
	d="
M470.325287,102.000099 
	C470.325134,123.499275 470.327545,144.498444 470.318817,165.497620 
	C470.318207,166.995926 470.290863,168.498398 470.176910,169.991364 
	C470.051758,171.631317 469.002350,172.247604 467.448792,172.215256 
	C465.915833,172.183334 464.865265,171.581116 464.782806,169.920746 
	C464.700226,168.257645 464.661377,166.590698 464.661041,164.925446 
	C464.655060,135.093292 464.545013,105.260277 464.768311,75.429779 
	C464.806122,70.375534 463.341797,68.890434 458.292511,68.895042 
	C320.298065,69.020912 182.303482,69.002640 44.308918,69.019547 
	C37.383312,69.020393 37.362869,69.066612 37.363682,75.917404 
	C37.367203,105.582840 37.384384,135.248276 37.393299,164.913712 
	C37.393700,166.246811 37.361229,167.579910 37.345345,168.913025 
	C37.323544,170.742859 36.926060,172.189438 34.629086,172.248642 
	C32.009102,172.316116 31.665352,170.664551 31.672394,168.648499 
	C31.675303,167.815292 31.654526,166.982025 31.654501,166.148788 
	C31.653578,133.816727 31.744001,101.484138 31.557186,69.153152 
	C31.528984,64.272583 32.694717,62.560780 37.917412,62.565895 
	C179.911697,62.704998 321.906189,62.701164 463.900482,62.583027 
	C468.864319,62.578899 470.619781,63.845356 470.441040,69.005653 
	C470.066254,79.825493 470.325928,90.667305 470.325287,102.000099 
z"/>
<path fill="#000000" opacity="1.000000" stroke="none" 
	d="
M34.024368,265.970764 
	C33.084782,267.717926 33.772476,269.709045 31.261795,271.419403 
	C30.265100,262.546021 25.626654,257.076355 15.803020,256.148254 
	C19.787987,253.116989 24.085400,253.569443 26.800245,250.637253 
	C29.480846,247.742065 30.088604,243.935135 32.065666,240.084579 
	C33.778458,248.839600 38.861305,253.883591 47.587337,255.429886 
	C41.881943,257.685669 35.800976,258.776276 34.024368,265.970764 
z"/>
<path fill="#000000" opacity="1.000000" stroke="none" 
	d="
M460.505005,242.507950 
	C466.958282,240.532013 467.619995,234.834549 469.860291,229.535324 
	C471.914032,237.728653 475.857666,243.734039 485.449768,244.532806 
	C476.678589,246.495590 471.381531,251.313049 469.738129,260.570862 
	C468.410522,251.471390 463.601410,246.411407 454.152527,245.480774 
	C456.358459,243.145874 458.530792,243.472794 460.505005,242.507950 
z"/>
</svg>